<svg xmlns="http://www.w3.org/2000/svg" width="777" height="350" viewBox="0 0 777 350">
    <g fill="none" fill-rule="evenodd">
        <g>
            <g>
                <g>
                    <g>
                        <g>
                            <g transform="translate(-312.000000, -1531.000000) translate(280.000000, 1120.000000) translate(32.000000, 346.000000) translate(0.000000, 65.000000)">
                                <rect width="776" height="105" x=".5" y=".5" fill="#FFF" stroke="#DDD" rx="8"/>
                                <text fill="#222" font-family="SpoqaHanSansNeo-Regular, Spoqa Han Sans Neo" font-size="16" letter-spacing="-.2">
                                    <tspan x="32" y="40">buffalo</tspan>
                                </text>
                                <path fill="#BBB" fill-rule="nonzero" d="M102 24c1.38 0 2.5 1.12 2.5 2.5v.072c0 .216.13.41.336.499.203.09.44.046.591-.102l.05-.05c.469-.469 1.105-.733 1.769-.733.663 0 1.3.264 1.768.733.47.469.733 1.105.733 1.768 0 .664-.264 1.3-.733 1.769l-.043.043c-.155.159-.198.395-.109.598.024.053.042.109.054.166.099.146.264.236.442.237h.142c1.38 0 2.5 1.12 2.5 2.5s-1.12 2.5-2.5 2.5h-.072c-.216 0-.41.13-.495.328-.093.211-.05.448.098.6l.05.05c.469.468.733 1.104.733 1.768 0 .663-.264 1.3-.733 1.768-.469.47-1.105.733-1.769.733-.663 0-1.3-.264-1.768-.733l-.043-.043c-.159-.155-.395-.198-.606-.105-.198.085-.327.28-.328.492v.142c0 1.38-1.12 2.5-2.5 2.5-1.381 0-2.5-1.12-2.5-2.5-.005-.278-.146-.474-.403-.57-.203-.09-.44-.047-.591.1l-.05.05c-.469.47-1.105.734-1.769.734-.663 0-1.3-.264-1.768-.733-.47-.469-.733-1.105-.733-1.769 0-.663.264-1.3.733-1.768l.043-.043c.155-.159.198-.395.105-.606-.085-.198-.28-.327-.492-.328H94.5c-1.38 0-2.5-1.12-2.5-2.5 0-1.381 1.12-2.5 2.5-2.5.278-.005.474-.146.57-.403.09-.203.047-.44-.1-.591l-.05-.05c-.47-.469-.734-1.105-.734-1.769 0-.663.264-1.3.733-1.768.469-.47 1.105-.733 1.769-.733.663 0 1.3.264 1.768.733l.043.043c.159.155.395.198.598.109.053-.024.109-.042.166-.054.146-.099.236-.264.237-.442V26.5c0-1.38 1.12-2.5 2.5-2.5zm0 1.667c-.46 0-.833.373-.833.833v.145c-.004.88-.53 1.674-1.339 2.02-.07.031-.144.051-.22.061-.787.276-1.67.085-2.28-.512l-.05-.05c-.157-.157-.37-.244-.59-.244-.222 0-.434.087-.59.245-.157.156-.245.368-.245.59 0 .22.088.432.245.59l.056.056c.631.645.806 1.61.461 2.387-.313.85-1.114 1.424-2.04 1.445H94.5c-.46 0-.833.373-.833.834 0 .46.373.833.833.833h.145c.88.004 1.674.53 2.017 1.33.365.826.19 1.79-.448 2.443l-.05.05c-.157.156-.244.368-.244.59 0 .22.087.433.245.59.156.156.368.244.59.244.22 0 .432-.088.59-.245l.056-.056c.645-.631 1.61-.806 2.387-.461.85.313 1.424 1.114 1.445 2.04v.075c0 .46.373.833.834.833.46 0 .833-.373.833-.833v-.145c.004-.88.53-1.674 1.33-2.017.826-.365 1.79-.19 2.443.448l.05.05c.156.157.368.244.59.244.22 0 .433-.087.59-.245.156-.156.244-.368.244-.59 0-.22-.088-.432-.245-.59l-.056-.056c-.631-.645-.806-1.61-.442-2.435.343-.801 1.137-1.327 2.021-1.33h.075c.46 0 .833-.374.833-.834 0-.46-.373-.833-.833-.833h-.145c-.88-.004-1.674-.53-2.02-1.339-.031-.07-.051-.144-.061-.22-.276-.787-.085-1.67.512-2.28l.05-.05c.157-.157.244-.37.244-.59 0-.222-.087-.434-.245-.59-.156-.157-.368-.245-.59-.245-.22 0-.432.088-.59.245l-.056.056c-.645.631-1.61.806-2.427.445-.81-.346-1.335-1.14-1.339-2.024V26.5c0-.46-.373-.833-.833-.833zm0 5c1.84 0 3.333 1.492 3.333 3.333 0 1.84-1.492 3.333-3.333 3.333-1.84 0-3.333-1.492-3.333-3.333 0-1.84 1.492-3.333 3.333-3.333zm0 5c.92 0 1.667-.747 1.667-1.667s-.747-1.667-1.667-1.667-1.667.747-1.667 1.667.747 1.667 1.667 1.667z"/>
                                <text fill="#222" font-family="SpoqaHanSansNeo-Regular, Spoqa Han Sans Neo" font-size="16" letter-spacing="-.2">
                                    <tspan x="32" y="77">Long-Long-Name-Project-Title</tspan>
                                </text>
                                <path fill="#BBB" fill-rule="nonzero" d="M277 61c1.38 0 2.5 1.12 2.5 2.5v.072c0 .216.13.41.336.499.203.09.44.046.591-.102l.05-.05c.469-.469 1.105-.733 1.769-.733.663 0 1.3.264 1.768.733.47.469.733 1.105.733 1.769 0 .663-.264 1.3-.733 1.768l-.043.043c-.155.159-.198.395-.109.598.024.053.042.109.054.166.099.146.264.236.442.237h.142c1.38 0 2.5 1.12 2.5 2.5s-1.12 2.5-2.5 2.5h-.072c-.216 0-.41.13-.495.328-.093.211-.05.448.098.6l.05.05c.469.468.733 1.104.733 1.768 0 .663-.264 1.3-.733 1.768-.469.47-1.105.733-1.769.733-.663 0-1.3-.264-1.768-.733l-.043-.043c-.159-.155-.395-.198-.606-.105-.198.085-.327.28-.328.492v.142c0 1.38-1.12 2.5-2.5 2.5-1.381 0-2.5-1.12-2.5-2.5-.005-.278-.146-.474-.403-.57-.203-.09-.44-.047-.591.1l-.05.05c-.469.47-1.105.734-1.769.734-.663 0-1.3-.264-1.768-.733-.47-.469-.733-1.105-.733-1.769 0-.663.264-1.3.733-1.768l.043-.043c.155-.159.198-.395.105-.606-.085-.198-.28-.327-.492-.328h-.142c-1.38 0-2.5-1.12-2.5-2.5 0-1.381 1.12-2.5 2.5-2.5.278-.005.474-.146.57-.403.09-.203.047-.44-.1-.591l-.05-.05c-.47-.469-.734-1.105-.734-1.769 0-.663.264-1.3.733-1.768.469-.47 1.105-.733 1.769-.733.663 0 1.3.264 1.768.733l.043.043c.159.155.395.198.598.109.053-.024.109-.042.166-.054.146-.099.236-.264.237-.442V63.5c0-1.38 1.12-2.5 2.5-2.5zm0 1.667c-.46 0-.833.373-.833.833v.145c-.004.88-.53 1.674-1.339 2.02-.07.031-.144.051-.22.061-.787.276-1.67.085-2.28-.512l-.05-.05c-.157-.157-.37-.244-.59-.244-.222 0-.434.087-.59.245-.157.156-.245.368-.245.59 0 .22.088.432.245.59l.056.056c.631.645.806 1.61.461 2.387-.313.85-1.114 1.424-2.04 1.445h-.075c-.46 0-.833.373-.833.834 0 .46.373.833.833.833h.145c.88.004 1.674.53 2.017 1.33.365.826.19 1.79-.448 2.443l-.05.05c-.157.156-.244.368-.244.59 0 .22.087.433.245.59.156.156.368.244.59.244.22 0 .432-.088.59-.245l.056-.056c.645-.631 1.61-.806 2.387-.461.85.313 1.424 1.114 1.445 2.04v.075c0 .46.373.833.834.833.46 0 .833-.373.833-.833v-.145c.004-.88.53-1.674 1.33-2.017.826-.365 1.79-.19 2.443.448l.05.05c.156.157.368.244.59.244.22 0 .433-.087.59-.245.156-.156.244-.368.244-.59 0-.22-.088-.432-.245-.59l-.056-.056c-.631-.645-.806-1.61-.442-2.435.343-.801 1.137-1.327 2.021-1.33h.075c.46 0 .833-.374.833-.834 0-.46-.373-.833-.833-.833h-.145c-.88-.004-1.674-.53-2.021-1.339-.03-.07-.05-.144-.06-.22-.276-.787-.085-1.67.512-2.28l.05-.05c.157-.157.244-.37.244-.59 0-.222-.087-.434-.245-.59-.156-.157-.368-.245-.59-.245-.22 0-.432.088-.59.245l-.056.056c-.645.631-1.61.806-2.427.445-.81-.346-1.335-1.14-1.339-2.024V63.5c0-.46-.373-.833-.833-.833zm0 5c1.84 0 3.333 1.492 3.333 3.333 0 1.84-1.492 3.333-3.333 3.333-1.84 0-3.333-1.492-3.333-3.333 0-1.84 1.492-3.333 3.333-3.333zm0 5c.92 0 1.667-.747 1.667-1.667s-.747-1.667-1.667-1.667-1.667.747-1.667 1.667.747 1.667 1.667 1.667z"/>
                                <text fill="#222" font-family="SpoqaHanSansNeo-Regular, Spoqa Han Sans Neo" font-size="16" letter-spacing="-.2">
                                    <tspan x="319" y="77">Long-Long-Name-Project-Title</tspan>
                                </text>
                                <path fill="#BBB" fill-rule="nonzero" d="M564 61c1.38 0 2.5 1.12 2.5 2.5v.072c0 .216.13.41.336.499.203.09.44.046.591-.102l.05-.05c.469-.469 1.105-.733 1.769-.733.663 0 1.3.264 1.768.733.47.469.733 1.105.733 1.769 0 .663-.264 1.3-.733 1.768l-.043.043c-.155.159-.198.395-.109.598.024.053.042.109.054.166.099.146.264.236.442.237h.142c1.38 0 2.5 1.12 2.5 2.5s-1.12 2.5-2.5 2.5h-.072c-.216 0-.41.13-.495.328-.093.211-.05.448.098.6l.05.05c.469.468.733 1.104.733 1.768 0 .663-.264 1.3-.733 1.768-.469.47-1.105.733-1.769.733-.663 0-1.3-.264-1.768-.733l-.043-.043c-.159-.155-.395-.198-.606-.105-.198.085-.327.28-.328.492v.142c0 1.38-1.12 2.5-2.5 2.5-1.381 0-2.5-1.12-2.5-2.5-.005-.278-.146-.474-.403-.57-.203-.09-.44-.047-.591.1l-.05.05c-.469.47-1.105.734-1.769.734-.663 0-1.3-.264-1.768-.733-.47-.469-.733-1.105-.733-1.769 0-.663.264-1.3.733-1.768l.043-.043c.155-.159.198-.395.105-.606-.085-.198-.28-.327-.492-.328h-.142c-1.38 0-2.5-1.12-2.5-2.5 0-1.381 1.12-2.5 2.5-2.5.278-.005.474-.146.57-.403.09-.203.047-.44-.1-.591l-.05-.05c-.47-.469-.734-1.105-.734-1.769 0-.663.264-1.3.733-1.768.469-.47 1.105-.733 1.769-.733.663 0 1.3.264 1.768.733l.043.043c.159.155.395.198.598.109.053-.024.109-.042.166-.054.146-.099.236-.264.237-.442V63.5c0-1.38 1.12-2.5 2.5-2.5zm0 1.667c-.46 0-.833.373-.833.833v.145c-.004.88-.53 1.674-1.339 2.02-.07.031-.144.051-.22.061-.787.276-1.67.085-2.28-.512l-.05-.05c-.157-.157-.37-.244-.59-.244-.222 0-.434.087-.59.245-.157.156-.245.368-.245.59 0 .22.088.432.245.59l.056.056c.631.645.806 1.61.461 2.387-.313.85-1.114 1.424-2.04 1.445h-.075c-.46 0-.833.373-.833.834 0 .46.373.833.833.833h.145c.88.004 1.674.53 2.017 1.33.365.826.19 1.79-.448 2.443l-.05.05c-.157.156-.244.368-.244.59 0 .22.087.433.245.59.156.156.368.244.59.244.22 0 .432-.088.59-.245l.056-.056c.645-.631 1.61-.806 2.387-.461.85.313 1.424 1.114 1.445 2.04v.075c0 .46.373.833.834.833.46 0 .833-.373.833-.833v-.145c.004-.88.53-1.674 1.33-2.017.826-.365 1.79-.19 2.443.448l.05.05c.156.157.368.244.59.244.22 0 .433-.087.59-.245.156-.156.244-.368.244-.59 0-.22-.088-.432-.245-.59l-.056-.056c-.631-.645-.806-1.61-.442-2.435.343-.801 1.137-1.327 2.021-1.33h.075c.46 0 .833-.374.833-.834 0-.46-.373-.833-.833-.833h-.145c-.88-.004-1.674-.53-2.02-1.339-.031-.07-.051-.144-.061-.22-.276-.787-.085-1.67.512-2.28l.05-.05c.157-.157.244-.37.244-.59 0-.222-.087-.434-.245-.59-.156-.157-.368-.245-.59-.245-.22 0-.432.088-.59.245l-.056.056c-.645.631-1.61.806-2.427.445-.81-.346-1.335-1.14-1.339-2.024V63.5c0-.46-.373-.833-.833-.833zm0 5c1.84 0 3.333 1.492 3.333 3.333 0 1.84-1.492 3.333-3.333 3.333-1.84 0-3.333-1.492-3.333-3.333 0-1.84 1.492-3.333 3.333-3.333zm0 5c.92 0 1.667-.747 1.667-1.667s-.747-1.667-1.667-1.667-1.667.747-1.667 1.667.747 1.667 1.667 1.667z"/>
                                <text fill="#222" font-family="SpoqaHanSansNeo-Regular, Spoqa Han Sans Neo" font-size="16" letter-spacing="-.2">
                                    <tspan x="144" y="40">Long-Long-Name-Project-Title</tspan>
                                </text>
                                <path fill="#BBB" fill-rule="nonzero" d="M389 24c1.38 0 2.5 1.12 2.5 2.5v.072c0 .216.13.41.336.499.203.09.44.046.591-.102l.05-.05c.469-.469 1.105-.733 1.769-.733.663 0 1.3.264 1.768.733.47.469.733 1.105.733 1.768 0 .664-.264 1.3-.733 1.769l-.043.043c-.155.159-.198.395-.109.598.024.053.042.109.054.166.099.146.264.236.442.237h.142c1.38 0 2.5 1.12 2.5 2.5s-1.12 2.5-2.5 2.5h-.072c-.216 0-.41.13-.495.328-.093.211-.05.448.098.6l.05.05c.469.468.733 1.104.733 1.768 0 .663-.264 1.3-.733 1.768-.469.47-1.105.733-1.769.733-.663 0-1.3-.264-1.768-.733l-.043-.043c-.159-.155-.395-.198-.606-.105-.198.085-.327.28-.328.492v.142c0 1.38-1.12 2.5-2.5 2.5-1.381 0-2.5-1.12-2.5-2.5-.005-.278-.146-.474-.403-.57-.203-.09-.44-.047-.591.1l-.05.05c-.469.47-1.105.734-1.769.734-.663 0-1.3-.264-1.768-.733-.47-.469-.733-1.105-.733-1.769 0-.663.264-1.3.733-1.768l.043-.043c.155-.159.198-.395.105-.606-.085-.198-.28-.327-.492-.328h-.142c-1.38 0-2.5-1.12-2.5-2.5 0-1.381 1.12-2.5 2.5-2.5.278-.005.474-.146.57-.403.09-.203.047-.44-.1-.591l-.05-.05c-.47-.469-.734-1.105-.734-1.769 0-.663.264-1.3.733-1.768.469-.47 1.105-.733 1.769-.733.663 0 1.3.264 1.768.733l.043.043c.159.155.395.198.598.109.053-.024.109-.042.166-.054.146-.099.236-.264.237-.442V26.5c0-1.38 1.12-2.5 2.5-2.5zm0 1.667c-.46 0-.833.373-.833.833v.145c-.004.88-.53 1.674-1.339 2.02-.07.031-.144.051-.22.061-.787.276-1.67.085-2.28-.512l-.05-.05c-.157-.157-.37-.244-.59-.244-.222 0-.434.087-.59.245-.157.156-.245.368-.245.59 0 .22.088.432.245.59l.056.056c.631.645.806 1.61.461 2.387-.313.85-1.114 1.424-2.04 1.445h-.075c-.46 0-.833.373-.833.834 0 .46.373.833.833.833h.145c.88.004 1.674.53 2.017 1.33.365.826.19 1.79-.448 2.443l-.05.05c-.157.156-.244.368-.244.59 0 .22.087.433.245.59.156.156.368.244.59.244.22 0 .432-.088.59-.245l.056-.056c.645-.631 1.61-.806 2.387-.461.85.313 1.424 1.114 1.445 2.04v.075c0 .46.373.833.834.833.46 0 .833-.373.833-.833v-.145c.004-.88.53-1.674 1.33-2.017.826-.365 1.79-.19 2.443.448l.05.05c.156.157.368.244.59.244.22 0 .433-.087.59-.245.156-.156.244-.368.244-.59 0-.22-.088-.432-.245-.59l-.056-.056c-.631-.645-.806-1.61-.442-2.435.343-.801 1.137-1.327 2.021-1.33h.075c.46 0 .833-.374.833-.834 0-.46-.373-.833-.833-.833h-.145c-.88-.004-1.674-.53-2.021-1.339-.03-.07-.05-.144-.06-.22-.276-.787-.085-1.67.512-2.28l.05-.05c.157-.157.244-.37.244-.59 0-.222-.087-.434-.245-.59-.156-.157-.368-.245-.59-.245-.22 0-.432.088-.59.245l-.056.056c-.645.631-1.61.806-2.427.445-.81-.346-1.335-1.14-1.339-2.024V26.5c0-.46-.373-.833-.833-.833zm0 5c1.84 0 3.333 1.492 3.333 3.333 0 1.84-1.492 3.333-3.333 3.333-1.84 0-3.333-1.492-3.333-3.333 0-1.84 1.492-3.333 3.333-3.333zm0 5c.92 0 1.667-.747 1.667-1.667s-.747-1.667-1.667-1.667-1.667.747-1.667 1.667.747 1.667 1.667 1.667z"/>
                                <text fill="#222" font-family="SpoqaHanSansNeo-Regular, Spoqa Han Sans Neo" font-size="16" letter-spacing="-.2">
                                    <tspan x="431" y="40">Long-Long-Name-Project-Title</tspan>
                                </text>
                                <path fill="#BBB" fill-rule="nonzero" d="M676 24c1.38 0 2.5 1.12 2.5 2.5v.072c0 .216.13.41.336.499.203.09.44.046.591-.102l.05-.05c.469-.469 1.105-.733 1.769-.733.663 0 1.3.264 1.768.733.47.469.733 1.105.733 1.768 0 .664-.264 1.3-.733 1.769l-.043.043c-.155.159-.198.395-.109.598.024.053.042.109.054.166.099.146.264.236.442.237h.142c1.38 0 2.5 1.12 2.5 2.5s-1.12 2.5-2.5 2.5h-.072c-.216 0-.41.13-.495.328-.093.211-.05.448.098.6l.05.05c.469.468.733 1.104.733 1.768 0 .663-.264 1.3-.733 1.768-.469.47-1.105.733-1.769.733-.663 0-1.3-.264-1.768-.733l-.043-.043c-.159-.155-.395-.198-.606-.105-.198.085-.327.28-.328.492v.142c0 1.38-1.12 2.5-2.5 2.5-1.381 0-2.5-1.12-2.5-2.5-.005-.278-.146-.474-.403-.57-.203-.09-.44-.047-.591.1l-.05.05c-.469.47-1.105.734-1.769.734-.663 0-1.3-.264-1.768-.733-.47-.469-.733-1.105-.733-1.769 0-.663.264-1.3.733-1.768l.043-.043c.155-.159.198-.395.105-.606-.085-.198-.28-.327-.492-.328h-.142c-1.38 0-2.5-1.12-2.5-2.5 0-1.381 1.12-2.5 2.5-2.5.278-.005.474-.146.57-.403.09-.203.047-.44-.1-.591l-.05-.05c-.47-.469-.734-1.105-.734-1.769 0-.663.264-1.3.733-1.768.469-.47 1.105-.733 1.769-.733.663 0 1.3.264 1.768.733l.043.043c.159.155.395.198.598.109.053-.024.109-.042.166-.054.146-.099.236-.264.237-.442V26.5c0-1.38 1.12-2.5 2.5-2.5zm0 1.667c-.46 0-.833.373-.833.833v.145c-.004.88-.53 1.674-1.339 2.02-.07.031-.144.051-.22.061-.787.276-1.67.085-2.28-.512l-.05-.05c-.157-.157-.37-.244-.59-.244-.222 0-.434.087-.59.245-.157.156-.245.368-.245.59 0 .22.088.432.245.59l.056.056c.631.645.806 1.61.461 2.387-.313.85-1.114 1.424-2.04 1.445h-.075c-.46 0-.833.373-.833.834 0 .46.373.833.833.833h.145c.88.004 1.674.53 2.017 1.33.365.826.19 1.79-.448 2.443l-.05.05c-.157.156-.244.368-.244.59 0 .22.087.433.245.59.156.156.368.244.59.244.22 0 .432-.088.59-.245l.056-.056c.645-.631 1.61-.806 2.387-.461.85.313 1.424 1.114 1.445 2.04v.075c0 .46.373.833.834.833.46 0 .833-.373.833-.833v-.145c.004-.88.53-1.674 1.33-2.017.826-.365 1.79-.19 2.443.448l.05.05c.156.157.368.244.59.244.22 0 .433-.087.59-.245.156-.156.244-.368.244-.59 0-.22-.088-.432-.245-.59l-.056-.056c-.631-.645-.806-1.61-.442-2.435.343-.801 1.137-1.327 2.021-1.33h.075c.46 0 .833-.374.833-.834 0-.46-.373-.833-.833-.833h-.145c-.88-.004-1.674-.53-2.02-1.339-.031-.07-.051-.144-.061-.22-.276-.787-.085-1.67.512-2.28l.05-.05c.157-.157.244-.37.244-.59 0-.222-.087-.434-.245-.59-.156-.157-.368-.245-.59-.245-.22 0-.432.088-.59.245l-.056.056c-.645.631-1.61.806-2.427.445-.81-.346-1.335-1.14-1.339-2.024V26.5c0-.46-.373-.833-.833-.833zm0 5c1.84 0 3.333 1.492 3.333 3.333 0 1.84-1.492 3.333-3.333 3.333-1.84 0-3.333-1.492-3.333-3.333 0-1.84 1.492-3.333 3.333-3.333zm0 5c.92 0 1.667-.747 1.667-1.667s-.747-1.667-1.667-1.667-1.667.747-1.667 1.667.747 1.667 1.667 1.667z"/>
                            </g>
                            <g fill="#FF3340">
                                <text font-family="SpoqaHanSansNeo-Regular, Spoqa Han Sans Neo" font-size="12" transform="translate(-312.000000, -1531.000000) translate(280.000000, 1120.000000) translate(32.000000, 346.000000) translate(0.000000, 65.000000) translate(88.000000, 0.500000)">
                                    <tspan x="6" y="15.5">24</tspan>
                                </text>
                                <text font-family="SpoqaHanSansNeo-Regular, Spoqa Han Sans Neo" font-size="12" transform="translate(-312.000000, -1531.000000) translate(280.000000, 1120.000000) translate(32.000000, 346.000000) translate(0.000000, 65.000000) translate(88.000000, 0.500000)">
                                    <tspan x="6" y="95.5">24</tspan>
                                </text>
                                <path fill-rule="nonzero" d="M1 .499V22.5h4v1h-9v-1h4V.5h-4v-1l4 .001V-.5h5v1L1 .499zM-4 105.5v-1h4v-22h-4v-1h9v1H1v22h4v1h-9z" transform="translate(-312.000000, -1531.000000) translate(280.000000, 1120.000000) translate(32.000000, 346.000000) translate(0.000000, 65.000000) translate(88.000000, 0.500000)"/>
                            </g>
                        </g>
                        <g transform="translate(-312.000000, -1531.000000) translate(280.000000, 1120.000000) translate(32.000000, 346.000000) translate(0.000000, 65.000000) translate(0.000000, 122.000000)">
                            <rect width="776" height="147" x=".5" y=".5" fill="#FFF" stroke="#DDD" rx="8"/>
                            <text fill="#555" font-family="SpoqaHanSansNeo-Regular, Spoqa Han Sans Neo" font-size="14" letter-spacing="-.2">
                                <tspan x="56" y="72">Olive는 iOS, Android 검증에 최적화 되어 있습니다.</tspan> <tspan x="56" y="94">추가한 프로젝트의 github source 는 Scan 을 위해서만 사용되며 분석이 완료되면 모두 삭제됩니다.</tspan> <tspan x="56" y="116">웹 서비스의 경우 AGPL을 제외한 License에서 배포로 보지 않아 자동 분석 데이터가 부족합니다. </tspan>
                            </text>
                            <circle cx="46" cy="69" r="2" fill="#555"/>
                            <circle cx="46" cy="91" r="2" fill="#555"/>
                            <circle cx="46" cy="113" r="2" fill="#555"/>
                            <g transform="translate(32.000000, 24.000000)">
                                <text fill="#222" font-family="SpoqaHanSansNeo-Bold, Spoqa Han Sans Neo" font-size="18" font-weight="bold" letter-spacing="-.2">
                                    <tspan x="24" y="17">확인해 주세요.</tspan>
                                </text>
                                <circle cx="8" cy="12" r="7.5" stroke="#038C65"/>
                                <rect width="2" height="7" x="7" y="7" fill="#038C65" rx="1"/>
                                <circle cx="8" cy="16" r="1" fill="#038C65"/>
                            </g>
                            <g fill="#FF3340">
                                <text font-family="SpoqaHanSansNeo-Regular, Spoqa Han Sans Neo" font-size="12" transform="translate(88.000000, 0.500000)">
                                    <tspan x="6" y="15.5">24</tspan>
                                </text>
                                <text font-family="SpoqaHanSansNeo-Regular, Spoqa Han Sans Neo" font-size="12" transform="translate(88.000000, 0.500000)">
                                    <tspan x="8" y="137.5">24</tspan>
                                </text>
                                <path fill-rule="nonzero" d="M1 .499V22.5h4v1h-9v-1h4V.5h-4v-1l4 .001V-.5h5v1L1 .499zM-4 147.5v-1h4v-22h-4v-1h9v1H1v22h4v1h-9z" transform="translate(88.000000, 0.500000)"/>
                            </g>
                        </g>
                        <g>
                            <g transform="translate(-312.000000, -1531.000000) translate(280.000000, 1120.000000) translate(32.000000, 346.000000) translate(0.000000, 65.000000) translate(0.000000, 286.000000)">
                                <rect width="776" height="63" x=".5" y=".5" fill="#E2F6F0" stroke="#CCE6DF" rx="8"/>
                                <circle cx="40" cy="32" r="8" fill="#038C65"/>
                                <path fill="#FFF" d="M39.333 35L36 31.667 37.333 30.333 39.333 32.333 42.667 29 44 30.333z"/>
                                <text fill="#222" font-family="SpoqaHanSansNeo-Regular, Spoqa Han Sans Neo" font-size="16" letter-spacing="-.2">
                                    <tspan x="56" y="36">Public Repository만 분석 가능하며, 개인당 최대 5개의 Project를 생성할 수 있습니다.</tspan>
                                </text>
                            </g>
                            <g fill="#FF3340">
                                <path fill-rule="nonzero" d="M3 .999V20h4v1h-9v-1h4V1h-4V0h9v1L3 .999z" transform="translate(-312.000000, -1531.000000) translate(280.000000, 1120.000000) translate(32.000000, 346.000000) translate(0.000000, 65.000000) translate(0.000000, 286.000000) translate(86.000000, 0.000000)"/>
                                <path d="M0 9H5V10H0zM0 52H5V53H0zM0 11H5V12H0zM0 54H5V55H0z" transform="translate(-312.000000, -1531.000000) translate(280.000000, 1120.000000) translate(32.000000, 346.000000) translate(0.000000, 65.000000) translate(0.000000, 286.000000) translate(86.000000, 0.000000)"/>
                                <path fill-rule="nonzero" d="M-2 64v-1h4V44h-4v-1h9v1H3v19h4v1h-9zM676 .999V63h4v1h-9v-1h4V1h-4V0h9v1l-4-.001z" transform="translate(-312.000000, -1531.000000) translate(280.000000, 1120.000000) translate(32.000000, 346.000000) translate(0.000000, 65.000000) translate(0.000000, 286.000000) translate(86.000000, 0.000000)"/>
                                <text font-family="SpoqaHanSansNeo-Regular, Spoqa Han Sans Neo" font-size="12" transform="translate(-312.000000, -1531.000000) translate(280.000000, 1120.000000) translate(32.000000, 346.000000) translate(0.000000, 65.000000) translate(0.000000, 286.000000) translate(86.000000, 0.000000)">
                                    <tspan x="612" y="34">64 middle</tspan>
                                </text>
                            </g>
                        </g>
                    </g>
                </g>
            </g>
        </g>
    </g>
</svg>
